<svg width="103" height="47" viewBox="0 0 103 47" fill="none" xmlns="http://www.w3.org/2000/svg">
<path d="M5.97264 0H0.862778V35.7689H5.97264V0Z" fill="white"/>
<path d="M36.1114 25.2935L36.3669 22.7386C36.3669 19.315 35.2428 16.4535 32.9433 14.1541C30.6439 11.8546 27.7824 10.7305 24.3588 10.7305C20.9352 10.7305 17.9715 11.9568 15.5188 14.4096C13.0661 16.8623 11.8397 19.7749 11.8397 23.2496C11.8397 26.8265 13.1172 29.8924 15.621 32.4473C18.1248 35.0022 21.1396 36.2797 24.6143 36.2797C25.9429 36.2797 27.1692 36.0753 28.3956 35.7176C29.6219 35.3088 30.6439 34.9 31.3593 34.4912C32.1258 34.0313 32.8922 33.5204 33.5565 32.9583C34.2208 32.3962 34.6807 31.9874 34.8851 31.7319C35.0895 31.4764 35.2428 31.3231 35.345 31.1698L32.0236 27.8484L31.2571 28.8193C30.7461 29.4325 29.8774 30.0457 28.6511 30.7099C27.3736 31.3742 26.0451 31.6808 24.6143 31.6808C22.6215 31.6808 20.9352 31.0676 19.5045 29.7902C18.0737 28.5127 17.205 27.0309 16.9495 25.2935H36.1114ZM24.3588 15.0738C26.2494 15.0738 27.7824 15.6359 29.0599 16.709C30.2862 17.8331 31.0527 19.2128 31.3593 20.9501H17.1539C17.6138 19.2128 18.4314 17.8331 19.7089 16.709C20.9352 15.6359 22.5193 15.0738 24.3588 15.0738Z" fill="white"/>
<path d="M59.9429 34.2868C59.9429 36.5351 59.2786 38.3747 57.8989 39.8054C56.5704 41.1851 54.8841 41.9005 52.7891 41.9005C51.8693 41.9005 50.9496 41.7472 50.0809 41.4917C49.2122 41.2362 48.5479 40.9296 47.9859 40.5719C47.4238 40.2142 46.9128 39.8565 46.4018 39.3967C45.9419 38.9368 45.6353 38.6302 45.482 38.4769C45.3287 38.3236 45.2265 38.1703 45.1244 38.0681L41.803 41.3895L42.2117 41.9005C42.4672 42.2582 42.9271 42.718 43.5403 43.229C44.1535 43.6889 44.8689 44.1999 45.6864 44.7109C46.504 45.1708 47.526 45.5796 48.8034 45.9372C50.0809 46.2949 51.4094 46.4993 52.7891 46.4993C56.2638 46.4993 59.1253 45.3241 61.5269 42.9735C63.8774 40.5719 65.0527 37.7104 65.0527 34.2357V11.2415H59.9429V13.7964L59.0742 13.0299C58.5121 12.5189 57.6435 12.0079 56.4171 11.4969C55.1907 10.986 53.8622 10.7305 52.5336 10.7305C49.4166 10.7305 46.7595 11.9057 44.4601 14.3074C42.1606 16.709 41.0365 19.5705 41.0365 22.9941C41.0365 26.4177 42.1606 29.2792 44.4601 31.6808C46.7595 34.0824 49.4166 35.2577 52.5336 35.2577C53.4023 35.2577 54.2199 35.1555 55.0885 34.9511C55.9061 34.6956 56.5704 34.4401 57.1325 34.1846C57.6945 33.9291 58.2055 33.6225 58.6654 33.2648C59.1253 32.9072 59.483 32.6517 59.5852 32.5495L59.9429 32.1918V34.2868ZM46.1463 22.9941C46.1463 20.8479 46.8106 19.0595 48.1903 17.5776C49.5699 16.0958 51.2051 15.3293 53.0446 15.3293C54.8841 15.3293 56.5193 16.0958 57.8989 17.5776C59.2275 19.0595 59.9429 20.8479 59.9429 22.9941C59.9429 25.1402 59.2275 26.9287 57.8989 28.4105C56.5193 29.8924 54.8841 30.6588 53.0446 30.6588C51.2051 30.6588 49.5699 29.8924 48.1903 28.4105C46.8106 26.9287 46.1463 25.1402 46.1463 22.9941Z" fill="white"/>
<path d="M91.7241 35.7687V19.9282C91.7241 17.3222 90.7532 15.1249 88.8626 13.3876C86.9719 11.5991 84.5192 10.7305 81.5044 10.7305C80.3291 10.7305 79.1539 10.8838 78.0297 11.1904C76.9055 11.548 75.9858 11.9057 75.3215 12.3145C74.6572 12.7233 73.9929 13.1832 73.3797 13.7453C72.7666 14.2563 72.4089 14.6139 72.2045 14.8183C72.0512 15.0227 71.8979 15.176 71.7957 15.3293L75.1171 18.6507L75.7814 17.782C76.1902 17.22 76.9055 16.709 77.9786 16.1469C79.0517 15.5848 80.2269 15.3293 81.5044 15.3293C82.9862 15.3293 84.2126 15.7892 85.1835 16.6579C86.1543 17.5266 86.6142 18.6507 86.6142 19.9282L77.672 21.4611C75.4748 21.8188 73.6863 22.6875 72.46 24.0672C71.1825 25.4468 70.5182 27.1331 70.5182 29.1259C70.5182 31.0165 71.3358 32.6517 72.971 34.0824C74.6572 35.5643 76.7011 36.2797 79.205 36.2797C80.0736 36.2797 80.8912 36.1775 81.7088 35.922C82.5775 35.7176 83.2417 35.4621 83.8038 35.2066C84.3659 34.9511 84.8769 34.6445 85.3368 34.2868C85.7966 33.9291 86.1032 33.6736 86.3076 33.5715C86.4609 33.4182 86.5631 33.2649 86.6142 33.2138V35.7687H91.7241ZM79.9714 31.6808C78.6429 31.6808 77.5698 31.3742 76.8033 30.761C75.9858 30.1479 75.6281 29.4325 75.6281 28.6149C75.6281 27.7462 75.8836 26.9798 76.4456 26.4177C77.0077 25.8556 77.7742 25.4468 78.694 25.2935L86.6142 24.0161V24.527C86.6142 26.8265 86.0521 28.5638 84.8769 29.8413C83.7016 31.0676 82.0665 31.6808 79.9714 31.6808Z" fill="white"/>
<path d="M103 0H97.89V35.7689H103V0Z" fill="white"/>
</svg>
